<?xml version="1.0" encoding="UTF-8" standalone="no"?>
<svg
   xml:space="preserve"
   fill-rule="evenodd"
   stroke-linejoin="round"
   stroke-miterlimit="2"
   clip-rule="evenodd"
   viewBox="0 0 159.9985 160.00006"
   version="1.1"
   id="svg5"
   sodipodi:docname="logo.svg"
   width="159.9985"
   height="160.00006"
   inkscape:version="1.3 (0e150ed6c4, 2023-07-21)"
   xmlns:inkscape="http://www.inkscape.org/namespaces/inkscape"
   xmlns:sodipodi="http://sodipodi.sourceforge.net/DTD/sodipodi-0.dtd"
   xmlns="http://www.w3.org/2000/svg"
   xmlns:svg="http://www.w3.org/2000/svg"><defs
   id="defs5" /><sodipodi:namedview
   id="namedview5"
   pagecolor="#ffffff"
   bordercolor="#999999"
   borderopacity="1"
   inkscape:showpageshadow="2"
   inkscape:pageopacity="0"
   inkscape:pagecheckerboard="0"
   inkscape:deskcolor="#d1d1d1"
   inkscape:zoom="1.2821369"
   inkscape:cx="99.053385"
   inkscape:cy="79.944661"
   inkscape:window-width="1920"
   inkscape:window-height="991"
   inkscape:window-x="-9"
   inkscape:window-y="-9"
   inkscape:window-maximized="1"
   inkscape:current-layer="svg5" />&#10;  &#10;  &#10;  &#10;  <path
   d="m 153.68038,156.37653 c 0.432,-0.406 0.943,-1.088 1.35,-2.15 0.393,-1.022 0.812,-2.752 1.166,-5.085 1.77,-11.363 3.067,-39.528 3.565,-67.707 0.511,-28.179 0.223,-56.37 -1.127,-67.786 -0.275,-2.36 -0.63,-4.1029999 -0.983,-5.1379999 -0.38,-1.075 -0.865,-1.77 -1.271,-2.189 -0.407,-0.432 -1.088,-0.944 -2.15,-1.35 -1.022,-0.406 -2.752,-0.812 -5.098,-1.18 -11.35,-1.755 -39.516,-3.052 -67.708001,-3.563 -28.178,-0.498 -56.37,-0.21 -67.786,1.14 -2.346,0.275 -4.0890002,0.629 -5.1240002,0.983 -1.075,0.367 -1.783,0.865 -2.202,1.271 -0.42,0.406 -0.944,1.088 -1.35,2.15 -0.393,1.022 -0.813,2.752 -1.166,5.0979999 -1.757,11.349 -3.05400002,39.515 -3.56500002,67.694 -0.498,28.191 -0.223,56.383 1.12700002,67.799 0.275,2.346 0.629,4.09 0.996,5.124 0.367,1.075 0.852,1.783 1.258,2.202 0.42,0.42 1.101,0.944 2.163,1.35 1.022,0.394 2.739,0.8 5.0850002,1.167 11.363,1.756 39.529,3.054 67.707,3.565 28.179001,0.498 56.370001,0.21 67.786001,-1.14 2.36,-0.276 4.103,-0.63 5.138,-0.984 1.075,-0.366 1.77,-0.865 2.189,-1.27 z m -3.133,-144.444 c -1.454,-0.289 -4.456,-0.852 -7.379,-1.167 -13.21,-1.4019999 -37.536,-2.4249999 -61.875001,-2.8569999 -24.338,-0.433 -48.69,-0.288 -61.94,0.642 -2.923,0.21 -5.95,0.656 -7.418,0.905 -0.302,1.4539999 -0.852,4.4559999 -1.167,7.3779999 -1.4140002,13.211 -2.4240002,37.536 -2.8700002,61.875 -0.433,24.338 -0.289,48.677 0.642,61.94 0.21,2.923 0.668,5.95 0.904,7.419 1.4680002,0.288 4.4700002,0.852 7.3920002,1.166 13.212,1.416 37.537,2.425 61.862,2.87 24.339001,0.433 48.690001,0.289 61.940001,-0.655 2.937,-0.196 5.951,-0.655 7.42,-0.891 0.3,-1.468 0.864,-4.47 1.179,-7.392 1.402,-13.211 2.424,-37.537 2.857,-61.875 0.432,-24.326 0.288,-48.677 -0.642,-61.928 -0.21,-2.936 -0.656,-5.95 -0.905,-7.431 z m -15.543,123.369 5.413,5.44 c 0.393,-0.394 0.865,-1.023 1.232,-2.02 0.315,-0.851 0.642,-2.293 0.918,-4.246 1.27,-9.122 1.965,-31.717 2.031,-54.312 0.052,-22.583 -0.524,-45.178 -1.743,-54.313 -0.262,-1.953 -0.59,-3.395 -0.891,-4.247 -0.367,-0.996 -0.84,-1.638 -1.232,-2.031 -0.38,-0.38 -1.023,-0.865 -2.006,-1.22 -0.865,-0.327 -2.306,-0.655 -4.246,-0.917 -9.135,-1.271 -31.717,-1.966 -54.313001,-2.031 -22.595,-0.053 -45.19,0.524 -54.326,1.743 -1.94,0.262 -3.381,0.59 -4.246,0.891 -0.996,0.367 -1.638,0.839 -2.018,1.232 -0.394,0.38 -0.865,1.023 -1.232,2.005 -0.315,0.852 -0.643,2.294 -0.918,4.247 -1.258,9.135 -1.966,31.717 -2.018,54.313 -0.066,22.595 0.51,45.178 1.743,54.313 0.262,1.953 0.577,3.394 0.891,4.26 0.354,0.995 0.839,1.624 1.219,2.018 0.38,0.38 1.022,0.865 2.018,1.232 0.852,0.314 2.294,0.642 4.247,0.917 9.122,1.258 31.717,1.966 54.3,2.019 22.595001,0.065 45.190001,-0.525 54.325001,-1.744 1.953,-0.262 3.395,-0.576 4.247,-0.89 0.996,-0.355 1.638,-0.84 2.018,-1.22 l -5.413,-5.438 z m -0.065,-109.963 c -1.232,-0.21 -3.303,-0.55 -5.335,-0.733 -10.563,-0.957 -30.013001,-1.481 -49.463001,-1.534 -19.437,-0.04 -38.887,0.367 -49.463,1.285 -2.019,0.17 -4.103,0.484 -5.335,0.694 a 65.39,65.39 0 0 0 -0.734,5.334 c -0.97,10.577 -1.48,30.027 -1.533,49.464 -0.052,19.45 0.367,38.9 1.271,49.477 0.17,2.018 0.498,4.102 0.708,5.334 a 65.39,65.39 0 0 0 5.334,0.734 c 10.577,0.97 30.014,1.48 49.464,1.533 19.45,0.053 38.886001,-0.367 49.463001,-1.271 a 74.236,74.236 0 0 0 5.347,-0.708 c 0.21,-1.232 0.538,-3.316 0.734,-5.334 0.957,-10.577 1.468,-30.014 1.52,-49.464 0.053,-19.45 -0.353,-38.9 -1.27,-49.463 -0.171,-2.032 -0.499,-4.116 -0.708,-5.348 z m -10.236,102.125 0.013,-0.013 a 5.042,5.042 0 0 0 1.192,-1.808 c 0.276,-0.682 0.564,-1.822 0.826,-3.369 1.14,-6.841 2.136,-23.814 2.648,-40.8 0.51,-16.986 0.524,-33.998 -0.21,-40.892 -0.17,-1.56 -0.393,-2.713 -0.63,-3.407 -0.3,-0.918 -0.746,-1.52 -1.087,-1.888 -0.354,-0.367 -0.918,-0.825 -1.822,-1.192 -0.668,-0.276 -1.809,-0.564 -3.368,-0.826 -6.829,-1.14 -23.801001,-2.136 -40.800001,-2.648 -16.986,-0.51 -33.985,-0.524 -40.879,0.21 -1.56,0.17 -2.713,0.393 -3.408,0.63 -0.93,0.3 -1.52,0.733 -1.887,1.087 -0.367,0.34 -0.839,0.917 -1.206,1.822 -0.262,0.668 -0.563,1.808 -0.825,3.355 -1.14,6.842 -2.137,23.814 -2.635,40.8 -0.51,17 -0.537,33.998 0.197,40.892 0.17,1.56 0.406,2.713 0.629,3.408 0.314,0.917 0.747,1.52 1.088,1.887 0.354,0.367 0.917,0.839 1.822,1.193 0.681,0.275 1.821,0.576 3.368,0.839 6.828,1.14 23.814,2.136 40.8,2.634 16.986,0.511 33.998001,0.537 40.879001,-0.21 1.572,-0.157 2.726,-0.393 3.407,-0.616 0.918,-0.314 1.52,-0.734 1.888,-1.088 z m -5.243,-5.596 -0.013,0.013 -0.013,0.013 2.647,2.779 -2.62,-2.805 z m 2.032,-80.958 c -5.911,-1.167 -23.080001,-2.11 -40.250001,-2.621 -17.17,-0.512 -34.352,-0.59 -40.341,0.21 -1.154,5.923 -2.097,23.093 -2.609,40.262 -0.524,17.17 -0.602,34.352 0.21,40.342 5.924,1.153 23.08,2.097 40.25,2.608 17.17,0.51 34.365001,0.603 40.341001,-0.21 1.167,-5.924 2.11,-23.08 2.621,-40.263 0.511,-17.17 0.59,-34.352 -0.222,-40.328 z m -15.374,70.565 2.45,2.949 c 0.46,-0.367 1.442,-1.665 1.993,-4.05 1.048,-4.535 2.438,-15.846 3.5,-27.196 1.06,-11.35 1.782,-22.74 1.585,-27.38 -0.105,-2.463 -0.839,-3.918 -1.219,-4.364 -0.38,-0.458 -1.664,-1.441 -4.063,-1.992 -4.521,-1.061 -15.845001,-2.438 -27.195001,-3.5 -11.35,-1.06 -22.727,-1.782 -27.38,-1.585 -2.45,0.105 -3.905,0.839 -4.364,1.219 -0.446,0.367 -1.429,1.664 -1.992,4.063 -1.049,4.521 -2.438,15.845 -3.5,27.195 -1.048,11.35 -1.782,22.727 -1.572,27.38 0.105,2.45 0.825,3.905 1.205,4.364 0.38,0.446 1.678,1.429 4.063,1.992 4.535,1.049 15.846,2.438 27.196,3.5 11.35,1.048 22.727,1.782 27.380001,1.573 2.45,-0.105 3.905,-0.84 4.364,-1.206 z m 1.73,-54.588 c -4.26,-0.669 -15.740001,-2.412 -25.387001,-3.303 -9.646,-0.905 -21.259,-1.31 -25.57,-1.442 -0.67,4.273 -2.412,15.754 -3.317,25.4 -0.904,9.647 -1.297,21.259 -1.428,25.57 4.273,0.67 15.74,2.412 25.387,3.317 9.66,0.89 21.258,1.297 25.583001,1.428 0.669,-4.272 2.412,-15.74 3.303,-25.387 0.905,-9.66 1.31,-21.258 1.429,-25.583 z m -13.958001,43.04 c 0.367,-0.261 1.31,-1.126 1.887,-2.922 0.734,-2.254 1.927,-7.942 2.949,-13.657 1.022,-5.727 1.860001,-11.468 1.966001,-13.84 0.078,-1.887 -0.511,-3.028 -0.760001,-3.395 -0.263,-0.367 -1.128,-1.31 -2.936,-1.9 -2.255,-0.72 -7.943,-1.914 -13.657,-2.936 -5.714,-1.022 -11.468,-1.86 -13.827,-1.966 -1.9,-0.078 -3.04,0.498 -3.408,0.76 -0.367,0.263 -1.31,1.128 -1.887,2.936 -0.734,2.241 -1.927,7.93 -2.95,13.657 -1.008,5.714 -1.86,11.468 -1.965,13.827 -0.079,1.9 0.511,3.041 0.773,3.408 0.25,0.367 1.114,1.31 2.923,1.887 2.254,0.721 7.942,1.914 13.657,2.936 5.727,1.022 11.468,1.874 13.84,1.966 1.887,0.079 3.028,-0.498 3.395,-0.76 z m -1.023,-28.899 c -5.164,-1.297 -16.514,-3.316 -21.848,-3.892 -1.284,5.164 -3.303,16.5 -3.893,21.835 5.204,1.298 16.554,3.329 21.849,3.906 1.297,-5.204 3.316,-16.554 3.892,-21.849 z"
   id="path5" />&#10;</svg>
